<svg xmlns="http://www.w3.org/2000/svg" width="500" height="500" viewBox="0 0 500 500">
  <metadata><?xpacket begin="﻿" id="W5M0MpCehiHzreSzNTczkc9d"?>
<x:xmpmeta xmlns:x="adobe:ns:meta/" x:xmptk="Adobe XMP Core 5.6-c138 79.159824, 2016/09/14-01:09:01        ">
   <rdf:RDF xmlns:rdf="http://www.w3.org/1999/02/22-rdf-syntax-ns#">
      <rdf:Description rdf:about=""/>
   </rdf:RDF>
</x:xmpmeta>
                                                                                                    
                                                                                                    
                                                                                                    
                                                                                                    
                                                                                                    
                                                                                                    
                                                                                                    
                                                                                                    
                                                                                                    
                                                                                                    
                                                                                                    
                                                                                                    
                                                                                                    
                                                                                                    
                                                                                                    
                                                                                                    
                                                                                                    
                                                                                                    
                                                                                                    
                                                                                                    
                           
<?xpacket end="w"?></metadata>
<defs>
    <style>
      .cls-1, .cls-3, .cls-4 {
        fill: #fff;
      }

      .cls-1 {
        opacity: 0.5;
      }

      .cls-2, .cls-6 {
        opacity: 0.75;
      }

      .cls-3, .cls-5, .cls-6 {
        fill-rule: evenodd;
      }

      .cls-7 {
        font-size: 30px;
        font-family: Roboto;
      }
    </style>
  </defs>
  <rect id="Rectangle_3_copy_5" data-name="Rectangle 3 copy 5" class="cls-1" x="6" y="5" width="32" height="32"/>
  <rect id="Rectangle_3_copy_6" data-name="Rectangle 3 copy 6" class="cls-2" x="6" y="46" width="51" height="51"/>
  <path class="cls-3" d="M22.357,71.116l6.575-6.75a1.2,1.2,0,0,1,1.722,0,1.274,1.274,0,0,1,0,1.768l-4.5,4.616H40.782a1.25,1.25,0,0,1,0,2.5H26.157l4.5,4.616a1.274,1.274,0,0,1,0,1.768,1.2,1.2,0,0,1-1.722,0l-6.575-6.75A1.274,1.274,0,0,1,22.357,71.116Z"/>
  <rect id="Rectangle_3_copy_8" data-name="Rectangle 3 copy 8" class="cls-4" x="8" y="267" width="29" height="29"/>
  <path id="Shape_1_copy_2" data-name="Shape 1 copy 2" class="cls-5" d="M16.2,280.877l4.285-4.643a0.751,0.751,0,0,1,1.122,0,0.911,0.911,0,0,1,0,1.216l-2.93,3.175h9.53a0.863,0.863,0,0,1,0,1.72h-9.53l2.93,3.175a0.911,0.911,0,0,1,0,1.216,0.753,0.753,0,0,1-1.122,0L16.2,282.093A0.911,0.911,0,0,1,16.2,280.877Z"/>
  <rect id="Rectangle_3_copy_9" data-name="Rectangle 3 copy 9" class="cls-4" x="8" y="308" width="29" height="29"/>
  <path id="Shape_1_copy_3" data-name="Shape 1 copy 3" class="cls-5" d="M28.8,321.877l-4.285-4.643a0.751,0.751,0,0,0-1.122,0,0.911,0.911,0,0,0,0,1.216l2.93,3.175h-9.53a0.863,0.863,0,0,0,0,1.72h9.53l-2.93,3.175a0.911,0.911,0,0,0,0,1.216,0.753,0.753,0,0,0,1.122,0l4.285-4.643A0.912,0.912,0,0,0,28.8,321.877Z"/>
  <path id="Ellipse_2_copy_4" data-name="Ellipse 2 copy 4" class="cls-6" d="M7,207c-0.125-25.516,14.327-38,32-38s31.125,10.769,32,38"/>
  <path class="cls-3" d="M55,194.836L41,181,27,194.836,28,196l13-13,13,13Z"/>
  <path id="Ellipse_2_copy_5" data-name="Ellipse 2 copy 5" class="cls-6" d="M7,253c-0.125-25.516,14.327-38,32-38s31.125,10.769,32,38"/>
  <path id="Shape_2_copy" data-name="Shape 2 copy" class="cls-3" d="M55,231.164L41,245,27,231.164,28,230l13,13,13-13Z"/>
  <rect id="Rectangle_3_copy_7" data-name="Rectangle 3 copy 7" class="cls-2" x="6" y="107" width="51" height="51"/>
  <path id="Shape_1_copy" data-name="Shape 1 copy" class="cls-3" d="M40.643,132.116l-6.575-6.75a1.2,1.2,0,0,0-1.722,0,1.274,1.274,0,0,0,0,1.768l4.5,4.616H22.218a1.25,1.25,0,0,0,0,2.5H36.843l-4.5,4.616a1.274,1.274,0,0,0,0,1.768,1.2,1.2,0,0,0,1.722,0l6.575-6.75A1.274,1.274,0,0,0,40.643,132.116Z"/>
  <text id="x" class="cls-7" transform="translate(15 26.913) scale(0.994 0.781)">x</text>
</svg>
